<svg xmlns="http://www.w3.org/2000/svg" version="1.1" xmlns:xlink="http://www.w3.org/1999/xlink" xmlns:svgjs="http://svgjs.dev/svgjs" width="1000" height="171" viewBox="0 0 1000 171"><g transform="matrix(1,0,0,1,-0.6060423986117485,-0.36353530270730516)"><svg viewBox="0 0 396 68" data-background-color="#ffffff" preserveAspectRatio="xMidYMid meet" height="171" width="1000" xmlns="http://www.w3.org/2000/svg" xmlns:xlink="http://www.w3.org/1999/xlink"><g id="tight-bounds" transform="matrix(1,0,0,1,0.2399927898502483,0.14456374610583111)"><svg viewBox="0 0 395.52 67.71087250778834" height="67.71087250778834" width="395.52"><g><svg viewBox="0 0 520.6954078152148 89.14022141476251" height="67.71087250778834" width="395.52"><g transform="matrix(1,0,0,1,125.17540781521481,6.409532757428366)"><svg viewBox="0 0 395.52 76.32115589990578" height="76.32115589990578" width="395.52"><g id="textblocktransform"><svg viewBox="0 0 395.52 76.32115589990578" height="76.32115589990578" width="395.52" id="textblock"><g><svg viewBox="0 0 395.52 76.32115589990578" height="76.32115589990578" width="395.52"><g transform="matrix(1,0,0,1,0,0)"><svg width="395.52" viewBox="3.990000009536743 -35.38999938964844 241.4099884033203 46.59000015258789" height="76.32115589990578" data-palette-color="#001f3f"><path d="M20.21-5.31Q22.04-7.91 22.04-12.54 22.04-17.16 20.22-19.67 18.4-22.17 15.07-22.17L15.07-22.17Q11.27-22.17 9.56-20.07 7.84-17.97 7.79-13.32L7.79-13.32 7.79-12.49Q7.79-7.23 9.53-4.97 11.27-2.7 15.14-2.7L15.14-2.7Q18.38-2.7 20.21-5.31ZM23.26-21.99Q25.96-18.6 25.96-12.46 25.96-6.32 23.22-2.93 20.48 0.46 15.46 0.46 10.44 0.46 7.79-3.21L7.79-3.21 7.51-3.21Q7.79-0.91 7.79 0.94L7.79 0.94 7.79 11.2 3.99 11.2 3.99-24.92 7.08-24.92 7.61-21.51 7.79-21.51Q10.52-25.38 15.53-25.38 20.55-25.38 23.26-21.99ZM43.91-25.38L43.91-25.38Q45.62-25.38 46.89-25.13L46.89-25.13 46.38-21.61Q44.89-21.94 43.65-21.94L43.65-21.94Q40.62-21.94 38.47-19.49 36.32-17.04 36.32-13.37L36.32-13.37 36.32 0 32.53 0 32.53-24.92 35.66-24.92 36.09-20.32 36.27-20.32Q37.66-22.78 39.62-24.08 41.58-25.38 43.91-25.38ZM52.28-21.99Q55.35-25.38 60.66-25.38 65.97-25.38 69.05-21.9 72.14-18.43 72.14-12.42 72.14-6.42 69.05-2.96L69.05-2.96Q65.97 0.46 60.59 0.46L60.59 0.46Q55.51 0.51 52.32-3.06 49.14-6.62 49.21-12.49L49.21-12.49Q49.21-18.6 52.28-21.99ZM60.61-22.17L60.61-22.17Q53.13-22.17 53.13-12.49L53.13-12.49Q53.13-7.71 55.04-5.21 56.95-2.7 60.66-2.7 64.38-2.7 66.3-5.19 68.22-7.68 68.22-12.47 68.22-17.26 66.3-19.72 64.38-22.17 60.61-22.17ZM82.93-0.15Q82.17 0.66 80.92 0.66 79.67 0.66 78.94-0.1 78.2-0.86 78.2-2.39 78.2-3.92 78.9-4.71 79.59-5.51 80.91-5.51 82.22-5.51 82.96-4.71 83.69-3.92 83.69-2.44 83.69-0.96 82.93-0.15ZM107.22-6.8L107.22-6.8Q107.22-3.31 104.63-1.43 102.04 0.46 97.21 0.46 92.38 0.46 89.6-1.11L89.6-1.11 89.6-4.63Q93.49-2.65 97.44-2.65L97.44-2.65Q103.58-2.65 103.58-6.47L103.58-6.47Q103.58-7.94 102.29-8.99 101-10.04 97.49-11.36 93.97-12.69 92.43-13.68L92.43-13.68Q89.52-15.65 89.52-18.76 89.52-21.87 92-23.62 94.48-25.38 98.69-25.38 102.9-25.38 106.69-23.76L106.69-23.76 105.35-20.68Q101.63-22.22 98.76-22.22 95.89-22.22 94.52-21.4 93.14-20.58 93.14-19.06L93.14-19.06Q93.14-18.1 93.63-17.38 94.13-16.66 95.26-16.01 96.4-15.37 99.66-14.18L99.66-14.18Q104.11-12.54 105.66-10.91 107.22-9.28 107.22-6.8ZM134.19-16.25L134.19 0 130.4 0 130.4-16.13Q130.4-19.21 129.01-20.69 127.62-22.17 124.68-22.17L124.68-22.17Q120.72-22.17 118.92-20.02 117.13-17.87 117.13-13.04L117.13-13.04 117.13 0 113.33 0 113.33-35.39 117.13-35.39 117.13-24.67Q117.13-22.65 116.95-21.49L116.95-21.49 117.18-21.49Q118.31-23.31 120.37-24.33 122.43-25.35 125.04-25.35L125.04-25.35Q129.66-25.35 131.93-23.15 134.19-20.96 134.19-16.25L134.19-16.25ZM143.6-21.99Q146.67-25.38 151.98-25.38 157.29-25.38 160.37-21.9 163.46-18.43 163.46-12.42 163.46-6.42 160.37-2.96L160.37-2.96Q157.29 0.46 151.91 0.46L151.91 0.46Q146.83 0.51 143.64-3.06 140.46-6.62 140.53-12.49L140.53-12.49Q140.53-18.6 143.6-21.99ZM151.93-22.17L151.93-22.17Q144.45-22.17 144.45-12.49L144.45-12.49Q144.45-7.71 146.36-5.21 148.27-2.7 151.98-2.7 155.7-2.7 157.62-5.19 159.54-7.68 159.54-12.47 159.54-17.26 157.62-19.72 155.7-22.17 151.93-22.17ZM190.91-16.25L190.91 0 187.12 0 187.12-16.13Q187.12-19.21 185.73-20.69 184.34-22.17 181.4-22.17L181.4-22.17Q177.43-22.17 175.64-20.02 173.84-17.87 173.84-13.04L173.84-13.04 173.84 0 170.05 0 170.05-35.39 173.84-35.39 173.84-24.67Q173.84-22.65 173.67-21.49L173.67-21.49 173.9-21.49Q175.03-23.31 177.09-24.33 179.15-25.35 181.76-25.35L181.76-25.35Q186.38-25.35 188.65-23.15 190.91-20.96 190.91-16.25L190.91-16.25ZM200.74-6.85L200.74-6.85Q200.74-4.83 201.98-3.74 203.22-2.65 205.44-2.65L205.44-2.65Q209-2.65 211-4.59 213-6.52 213-10.01L213-10.01 213-12.26 209.23-12.11Q204.73-11.93 202.74-10.69 200.74-9.45 200.74-6.85ZM216.79-17.01L216.79 0 213.98 0 213.23-3.54 213.05-3.54Q211.18-1.21 209.33-0.38 207.49 0.46 204.71 0.46L204.71 0.46Q200.97 0.46 198.88-1.47 196.79-3.39 196.79-6.9L196.79-6.9Q196.79-14.43 208.85-14.81L208.85-14.81 213.1-14.94 213.1-16.48Q213.1-19.46 211.84-20.84 210.57-22.22 207.63-22.22 204.68-22.22 200.74-20.32L200.74-20.32 199.58-23.21Q203.52-25.35 208.02-25.35 212.52-25.35 214.65-23.36 216.79-21.36 216.79-17.01L216.79-17.01ZM245.4-16.25L245.4 0 241.61 0 241.61-16.13Q241.61-19.21 240.22-20.69 238.83-22.17 235.9-22.17L235.9-22.17Q231.98-22.17 230.16-20.06 228.34-17.95 228.34-13.07L228.34-13.07 228.34 0 224.55 0 224.55-24.92 227.63-24.92 228.24-21.51 228.42-21.51Q229.58-23.33 231.68-24.36 233.77-25.38 236.35-25.38L236.35-25.38Q240.9-25.38 243.15-23.18 245.4-20.98 245.4-16.25L245.4-16.25Z" opacity="1" transform="matrix(1,0,0,1,0,0)" fill="#001f3f" class="wordmark-text-0" data-fill-palette-color="primary" id="text-0"></path></svg></g></svg></g></svg></g></svg></g><g><svg viewBox="0 0 89.14022141476251 89.14022141476251" height="89.14022141476251" width="89.14022141476251"><g><svg></svg></g><g id="icon-0"><svg viewBox="0 0 89.14022141476251 89.14022141476251" height="89.14022141476251" width="89.14022141476251"><g><path d="M0 44.57c0-24.615 19.955-44.57 44.57-44.57 24.615 0 44.57 19.955 44.57 44.57 0 24.615-19.955 44.57-44.57 44.57-24.615 0-44.57-19.955-44.57-44.57zM44.57 82.257c20.814 0 37.687-16.873 37.688-37.687 0-20.814-16.873-37.687-37.688-37.687-20.814 0-37.687 16.873-37.687 37.687 0 20.814 16.873 37.687 37.687 37.687z" data-fill-palette-color="accent" fill="#2ecc40" stroke="transparent"></path></g><g transform="matrix(1,0,0,1,22.242078403753567,22.242078403753567)"><svg viewBox="0 0 44.656064607255374 44.656064607255374" height="44.656064607255374" width="44.656064607255374"><g><svg xmlns="http://www.w3.org/2000/svg" xmlns:xlink="http://www.w3.org/1999/xlink" version="1.1" x="0" y="0" viewBox="5 5 90 90" enable-background="new 0 0 100 100" xml:space="preserve" height="44.656064607255374" width="44.656064607255374" class="icon-s-0" data-fill-palette-color="accent" id="s-0"><path d="M50 5C25.1 5 5 25.1 5 50c0 24.8 20.1 45 45 45 24.9 0 45-20.2 45-45C95 25.1 74.9 5 50 5L50 5zM50 77c-14.9 0-27-12.1-27-27 0-14.9 12.1-27 27-27 14.9 0 27 12.1 27 27C77 64.9 64.9 77 50 77L50 77zM40.3 30.7C34 33.9 29.5 40 28.6 47.3h8C36.8 40.7 38.2 35 40.3 30.7L40.3 30.7zM50 70.7c3.1 0 7.3-6.8 8-18H42C42.7 63.9 46.9 70.7 50 70.7L50 70.7zM28.6 52.7c1 7.5 5.7 13.8 12.4 16.9-2.4-4.2-4-10-4.4-16.9H28.6zM59.7 30.7c2.1 4.3 3.5 10 3.8 16.6h7.9C70.5 40 66 33.9 59.7 30.7L59.7 30.7zM50 28.4c-3.2 0-7.5 7.1-8 18.9H58C57.5 35.5 53.2 28.4 50 28.4L50 28.4zM59 69.5c6.6-3.1 11.4-9.3 12.4-16.9h-8C63 59.5 61.5 65.4 59 69.5z" fill="#2ecc40" data-fill-palette-color="accent"></path></svg></g></svg></g></svg></g></svg></g></svg></g><defs></defs></svg><rect width="395.52" height="67.71087250778834" fill="none" stroke="none" visibility="hidden"></rect></g></svg></g></svg>